<svg xmlns="http://www.w3.org/2000/svg" viewBox="0 0 64 64" role="img" aria-label="Mango favicon">
  <g transform="translate(32 32) scale(1.18) translate(-32 -32)">
    <path
      d="M33.8 10.2c9.4 2 15.7 12.9 13.9 24.3-1.9 12.2-11.8 21.4-22.2 19.8-9.8-1.5-13.4-11.7-10.6-23.1 2.8-11.7 10.1-22.9 18.9-21z"
      fill="#ff8f1f"
    />
    <path
      d="M32.3 10c7.1 1.6 12.1 10.8 11 20.8C41.9 43 33.5 52.6 24.6 53.5c7.8 1.5 18.3-6.5 21.5-18.3 3.2-12-1.9-22.6-13.8-25.2z"
      fill="#ffc43d"
      opacity=".78"
    />
    <path
      d="M21.1 47.5c-5.8-3.8-6.8-12.9-2.4-23.4 2.6-6.3 6.6-11.7 11.4-13.5-7.5 5.7-10.2 13.6-10.7 21.9-.4 6.7.5 11.3 1.7 15z"
      fill="#2d8f57"
      opacity=".75"
    />
    <path
      d="M32.4 12.2c4.4-6.1 10.5-7.2 17.2-3.7-3.3 6.5-9.7 9.2-17.2 3.7z"
      fill="#2d8f57"
    />
    <path d="M31.2 15.2c1.9-1.7 4.9-3.7 9.6-5" fill="none" stroke="#1c1308" stroke-width="2" stroke-linecap="round"/>
    <circle cx="29" cy="21" r="5.4" fill="#fff7de" opacity=".72"/>
  </g>
</svg>
